<svg id="Layer_1" data-name="Layer 1" xmlns="http://www.w3.org/2000/svg" viewBox="0 0 1026.49 267.05"><defs><style>.cls-1,.cls-2{fill:#4628fd;}.cls-2{font-size:100px;font-family:Poppins-ExtraBold, Poppins;font-weight:800;}</style></defs><path class="cls-1" d="M97,7.85h56.53L137.58,52.43a20.12,20.12,0,0,0-2.24,7.72c-.18,2.26-.54,6.9,2.24,10.46,2.91,3.72,8.4,5.15,13.95,4l-21.17,56.53a52.19,52.19,0,0,1-10,0C105.11,129.65,88,121,79.31,105.73a49.68,49.68,0,0,1-6-18.18,45.47,45.47,0,0,1,0-10Z"/><path class="cls-1" d="M69.59,131.58a17.37,17.37,0,0,0-2.73,12,17.16,17.16,0,0,0,5,9.71l147.43,1a16.65,16.65,0,0,0,4.73,0c9.64-1.37,16.64-11.07,18.93-19.42a27.69,27.69,0,0,0,.74-3.74l57.78.49L296,145a92.54,92.54,0,0,1-5.23,10.71c-10.17,17.8-23.17,26.62-46.32,42.34-7.21,4.89-14.84,9.63-25.65,11.45a53.38,53.38,0,0,1-9,.75H51.66a39.72,39.72,0,0,1-6.22,0c-17.26-1.35-35.32-14.16-41.84-32.63-1.5-4.26-6-13.07-2-23.41l8.71-22.66Z"/><path class="cls-1" d="M186.91,7.85h56.53L227.5,52.43a20.12,20.12,0,0,0-2.24,7.72c-.17,2.26-.54,6.9,2.24,10.46,2.91,3.72,8.4,5.15,13.95,4l-21.17,56.53a52.16,52.16,0,0,1-10,0c-15.28-1.48-32.39-10.11-41.09-25.4a49.89,49.89,0,0,1-6-18.18,46.76,46.76,0,0,1,0-10Z"/><text class="cls-2" transform="translate(331.72 85.45)">JALADRI <tspan x="0" y="120">NUSANTARA</tspan></text></svg>